<?xml version="1.0" encoding="utf-8"?>
<!-- Generator: Adobe Illustrator 25.0.1, SVG Export Plug-In . SVG Version: 6.00 Build 0)  -->
<svg version="1.1" id="Capa_1" xmlns="http://www.w3.org/2000/svg" xmlns:xlink="http://www.w3.org/1999/xlink" x="0px" y="0px"
	 viewBox="0 0 200 325" style="enable-background:new 0 0 200 325;" xml:space="preserve">
<style type="text/css">
	.st0{fill:none;}
	.st1{fill:#F2F2F2;}
</style>
<g>
	<polygon class="st0" points="34.9,262.6 34.9,262.6 34.9,274.7 47.1,262.6 47.3,262.6 153.4,156.4 35.1,50.3 	"/>
	<path class="st1" d="M71.8,40.4L30.9,0l-23,23.1v0L0,31l0.2,263l7.5,7.9h0l9.7,9.7l-4.8-4.8l4.8,4.8L35,294l-17.6,17.6L30.8,325
		l44.5-44l111.1-111l13.7-13.7L71.8,40.4z M34.9,274.8L34.9,274.8L34.9,274.8z M47.3,262.6h-0.2l-12.1,12.1l0-12.1h-0.1l0.2-212.3
		l118.3,106.1L47.3,262.6z"/>
</g>
</svg>
