<?xml version="1.0" encoding="utf-8"?>
<!-- Generator: Adobe Illustrator 25.0.1, SVG Export Plug-In . SVG Version: 6.00 Build 0)  -->
<svg version="1.1" id="Capa_1" xmlns="http://www.w3.org/2000/svg" xmlns:xlink="http://www.w3.org/1999/xlink" x="0px" y="0px"
	 viewBox="0 0 224.5 150" style="enable-background:new 0 0 224.5 150;" xml:space="preserve">
<g>
	<g>
		<g>
			<path d="M220.4,82.4l-62.7,62.8h-7.3v-7.3l62.9-62.7h7.2V82.4z M150.4,11.4V4.1h7.3l62.7,62.8v7.2h-7.2L150.4,11.4z"/>
		</g>
		<path d="M38.1,65.7c-10.4,2.9-19.4,8-27.2,15.8l-6.8-6.8c18.5-18.5,43.5-24.9,67.4-18.5c12,3.2,22.4,9.3,31.6,18.5l-6.8,6.8
			C80.7,66,58.9,60.4,38.1,65.7z M169.6,83.5c10.3-2.6,19.4-7.9,27.2-15.7l6.8,6.8c-18.5,18.5-43.5,24.9-67.4,18.5
			c-11.9-3.2-22.4-9.3-31.6-18.5l6.8-6.8C127,83.4,148.8,89.1,169.6,83.5z"/>
	</g>
</g>
</svg>
