<?xml version="1.0" encoding="utf-8"?>
<!-- Generator: Adobe Illustrator 24.3.0, SVG Export Plug-In . SVG Version: 6.00 Build 0)  -->
<svg version="1.1" id="Capa_1" xmlns="http://www.w3.org/2000/svg" xmlns:xlink="http://www.w3.org/1999/xlink" x="0px" y="0px"
	 viewBox="0 0 150 150" style="enable-background:new 0 0 150 150;" xml:space="preserve">
<g>
	<g>
		<polygon points="79.4,85.8 132.8,32.3 138.9,32.3 138.9,38.5 93.8,83.7 138.9,83.7 138.9,91.9 79.4,91.9 		"/>
		<path d="M114.4,23.3v8.2c-11.1,0-20.6-5.6-25.9-14.7c-2.7-4.6-4-9.6-4-15.1h8.2c0,8.1,4,14.9,10.6,18.7
			C106.9,22.4,110.4,23.3,114.4,23.3z"/>
		<polygon points="132.9,148.2 79.4,94.7 79.4,88.5 85.6,88.5 130.8,133.8 130.8,88.5 138.9,88.5 138.9,148.2 		"/>
		<rect x="75.1" y="28.8" width="8.2" height="59.6"/>
		<path d="M28,146.4h-8.2c0-22.2,11.2-41.2,29.4-51.8c9.1-5.2,19.1-7.9,30.2-7.9v8.2c-18.8,0-35.3,9.7-44.6,25.6
			C30.3,128.4,28,137,28,146.4z"/>
		<path d="M35.2,12.9V4.6c11.1,0,20.6,5.6,26,14.7c2.6,4.5,3.9,9.5,3.9,15.1H57c0-8.1-4-14.9-10.6-18.7
			C42.8,13.9,39.3,12.9,35.2,12.9z"/>
		<path d="M44.8,80.3c7.8,4.6,16.4,6.9,25.8,6.9v8.2c-22.2,0-41.2-11.2-51.8-29.4C13.7,56.9,11,46.9,11,35.9h8.2
			C19.2,54.6,28.9,71.2,44.8,80.3z"/>
	</g>
</g>
</svg>
