<?xml version="1.0" encoding="utf-8"?>
<!-- Generator: Adobe Illustrator 24.3.0, SVG Export Plug-In . SVG Version: 6.00 Build 0)  -->
<svg version="1.1" id="Capa_1" xmlns="http://www.w3.org/2000/svg" xmlns:xlink="http://www.w3.org/1999/xlink" x="0px" y="0px"
	 viewBox="0 0 150 150" style="enable-background:new 0 0 150 150;" xml:space="preserve">
<g>
	<g>
		<polygon points="132.6,30.6 79.2,84.2 73.1,84.2 73.1,78 126.6,24.5 132.6,24.5 		"/>
		<rect x="124.8" y="69.8" width="8.2" height="29.8"/>
		<path d="M19.6,123.6v-8.2c11.1,0,20.6,5.6,26,14.7c2.6,4.5,3.9,9.5,3.9,15.1h-8.2c0-8.1-4-14.9-10.6-18.7
			C27.3,124.6,23.8,123.6,19.6,123.6z"/>
		<path d="M43.7,100.6c-8-4.5-16.5-6.8-25.9-6.8v-8.2C40,85.6,59,96.8,69.6,115c5.3,9.1,7.9,19.1,7.9,30.2h-8.2
			C69.2,126.4,59.5,109.9,43.7,100.6z"/>
		<polygon points="132.6,139.1 132.6,145.2 73.1,145.2 73.1,137 118.4,137 73.1,91.8 73.1,85.6 79.2,85.6 		"/>
		<polygon points="17,58.3 70.4,4.8 76.6,4.8 76.6,11 23.1,64.4 17,64.4 		"/>
		<path d="M19.4,4.8h8.2c0,17,7.9,32,21.1,41.6c6.6,4.9,13.9,7.8,22.1,9.1V4.9h8.2v59.6l-0.3-0.1c-22.1-0.1-41-11.3-51.6-29.5
			C21.9,25.8,19.4,15.9,19.4,4.8z"/>
	</g>
</g>
</svg>
