<?xml version="1.0" encoding="utf-8"?>
<!-- Generator: Adobe Illustrator 24.3.0, SVG Export Plug-In . SVG Version: 6.00 Build 0)  -->
<svg version="1.1" id="Capa_1" xmlns="http://www.w3.org/2000/svg" xmlns:xlink="http://www.w3.org/1999/xlink" x="0px" y="0px"
	 viewBox="0 0 150 150" style="enable-background:new 0 0 150 150;" xml:space="preserve">
<g>
	<g>
		<path d="M36.3,111c-10.8,0-20.5-5.8-25.8-14.9c-2.7-4.6-4.1-9.6-4.1-14.9h8.2c0,7.8,4.2,14.8,10.8,18.6c3.4,2,6.9,2.9,10.8,2.9
			c7.8,0,14.8-4.1,18.7-10.7c1.9-3.4,2.8-6.9,2.8-10.8h8.2c0,10.8-5.8,20.4-14.9,25.7C46.7,109.7,41.8,111,36.3,111z"/>
		<path d="M122.5,150h-8.2c0-11.1,5.6-20.6,14.7-25.9c4.6-2.7,9.6-4,15.1-4v8.2c-8.1,0-14.9,4-18.7,10.6
			C123.5,142.4,122.5,145.9,122.5,150z"/>
		<polygon points="59.5,80.5 6,27.1 6,20.9 12.2,20.9 65.6,74.4 65.6,80.5 		"/>
		<path d="M110.3,15.1c-8-4.5-16.5-6.8-25.9-6.8V0c22.2,0,41.2,11.2,51.8,29.4c5.3,9.1,7.9,19.1,7.9,30.2h-8.2
			C135.8,40.9,126,24.4,110.3,15.1z"/>
		<rect x="66.1" y="89.6" width="8.2" height="59.6"/>
		<rect x="74.8" y="81.2" width="59.6" height="8.2"/>
		<polygon points="81.4,90.3 105,114 105,120.1 98.9,120.1 75.3,96.4 75.3,90.3 		"/>
		<polygon points="66.7,74.4 120.1,20.9 126.3,20.9 126.3,27.1 72.8,80.5 66.7,80.5 		"/>
	</g>
</g>
</svg>
