<?xml version="1.0" encoding="utf-8"?>
<!-- Generator: Adobe Illustrator 24.3.0, SVG Export Plug-In . SVG Version: 6.00 Build 0)  -->
<svg version="1.1" id="Capa_1" xmlns="http://www.w3.org/2000/svg" xmlns:xlink="http://www.w3.org/1999/xlink" x="0px" y="0px"
	 viewBox="0 0 150 150" style="enable-background:new 0 0 150 150;" xml:space="preserve">
<g>
	<g>
		<polygon points="76.5,61.8 23,115.4 16.8,115.4 16.8,109.2 70.4,55.7 76.5,55.7 		"/>
		<path d="M104.3,123.6v-8.2c11.1,0,20.6,5.6,25.9,14.7c2.7,4.6,4,9.6,4,15.1H126c0-8.1-4-14.9-10.6-18.7
			C111.9,124.6,108.4,123.6,104.3,123.6z"/>
		<path d="M76,12V3.8c22.2,0,41.2,11.2,51.8,29.4c5.2,9.1,7.9,19.1,7.9,30.2h-8.3c0-18.8-9.7-35.4-25.6-44.5C94,14.3,85.4,12,76,12z
			"/>
		<polygon points="20.5,63.7 14.4,63.7 14.4,4.1 22.6,4.1 22.6,49.3 67.8,4.1 74,4.1 74,10.3 		"/>
		<polygon points="105.2,107 128.8,83.3 135,83.3 135,89.5 111.3,113.1 105.2,113.1 		"/>
		<path d="M46.3,146.2c-10.8,0-20.5-5.8-25.8-14.9c-2.7-4.6-4.1-9.5-4.1-14.8h8.2c0,7.8,4.2,14.8,10.8,18.6c3.4,2,6.9,2.9,10.8,2.9
			c7.8,0,14.8-4.1,18.7-10.7c1.9-3.4,2.8-6.9,2.8-10.8h8.2c0,10.8-5.8,20.4-14.9,25.7C56.7,144.9,51.8,146.2,46.3,146.2z"/>
		<path d="M127.4,55.2v8.2c-18.8,0-35.4,9.7-44.5,25.5c-4.6,8-6.9,16.5-6.9,25.9h-8.2C67.8,92.6,79,73.6,97.2,63
			C106.3,57.8,116.3,55.2,127.4,55.2z"/>
	</g>
</g>
</svg>
