<?xml version="1.0" encoding="utf-8"?>
<!-- Generator: Adobe Illustrator 25.0.1, SVG Export Plug-In . SVG Version: 6.00 Build 0)  -->
<svg version="1.1" id="Capa_1" xmlns="http://www.w3.org/2000/svg" xmlns:xlink="http://www.w3.org/1999/xlink" x="0px" y="0px"
	 viewBox="0 0 224.5 150" style="enable-background:new 0 0 224.5 150;" xml:space="preserve">
<g>
	<g>
		<g>
			<path d="M4.1,66.9L66.8,4.1h7.3v7.3L11.3,74.1H4.1V66.9z M74.1,137.9v7.3h-7.3L4.1,82.4v-7.2h7.2L74.1,137.9z"/>
		</g>
		<path d="M186.4,83.6c10.4-2.9,19.4-8,27.2-15.8l6.8,6.8C202,93,177,99.5,153,93.1c-12-3.2-22.4-9.3-31.6-18.5l6.8-6.8
			C143.8,83.3,165.6,88.9,186.4,83.6z M55,65.8c-10.3,2.6-19.4,7.9-27.2,15.7L21,74.6c18.5-18.5,43.5-24.9,67.4-18.5
			c11.9,3.2,22.4,9.3,31.6,18.5l-6.8,6.8C97.6,65.9,75.8,60.2,55,65.8z"/>
	</g>
</g>
</svg>
