<?xml version="1.0" encoding="utf-8"?>
<!-- Generator: Adobe Illustrator 24.3.0, SVG Export Plug-In . SVG Version: 6.00 Build 0)  -->
<svg version="1.1" id="Capa_1" xmlns="http://www.w3.org/2000/svg" xmlns:xlink="http://www.w3.org/1999/xlink" x="0px" y="0px"
	 viewBox="0 0 150 150" style="enable-background:new 0 0 150 150;" xml:space="preserve">
<g>
	<g>
		<rect x="28.9" y="34.9" width="8.2" height="29.8"/>
		<polygon points="83.1,86.8 29.7,140.2 23.5,140.2 23.5,134.1 76.9,80.7 83.1,80.7 		"/>
		<polygon points="65.9,58.7 119.4,5.1 125.6,5.1 125.6,11.3 80.4,56.5 125.6,56.5 125.6,64.8 65.9,64.8 		"/>
		<path d="M85.6,146.4c-10.8,0-20.5-5.8-25.8-14.9c-2.7-4.6-4.1-9.6-4.1-14.9h8.2c0,7.8,4.2,14.8,10.8,18.6c3.4,2,6.9,2.9,10.8,2.9
			c7.8,0,14.8-4.1,18.7-10.7c1.9-3.4,2.8-6.9,2.8-10.8h8.2c0,10.8-5.8,20.4-14.9,25.7C95.9,145.1,91.1,146.4,85.6,146.4z"/>
		<path d="M126.6,116.2h-8.2c0-18.8-9.7-35.4-25.5-44.5c-8-4.6-16.5-6.9-25.9-6.9v-8.2c22.2,0,41.2,11.2,51.8,29.4
			C124.1,95.1,126.6,105.1,126.6,116.2z"/>
		<path d="M66.9,56.5v8.2C55.8,64.7,46.2,59.1,41,50c-2.7-4.6-4-9.6-4-15.1h8.2c0,8.1,4,14.9,10.6,18.7
			C59.2,55.5,62.8,56.5,66.9,56.5z"/>
		<polygon points="28.9,27.3 52.6,3.6 58.7,3.6 58.7,9.7 35,33.4 28.9,33.4 		"/>
	</g>
</g>
</svg>
